<svg xmlns="http://www.w3.org/2000/svg" viewBox="0 0 508.01 522.29"><defs><style>.cls-1{fill:#262222;}.cls-2{fill:#f5f5f5;}.cls-2,.cls-6{stroke:#002cc1;}.cls-2,.cls-4,.cls-6{stroke-miterlimit:10;}.cls-3{fill:#63666a;}.cls-4{fill:#fefefe;stroke:#63666a;}.cls-5{fill:#e4e4e2;}.cls-7{fill:#2d2d2d;}</style></defs><title>computer_2</title><g id="레이어_2" data-name="레이어 2"><g id="레이어_1-2" data-name="레이어 1"><path class="cls-1" d="M164,226,487.28,354A20.79,20.79,0,0,0,508,333.15V160.64c0-11.52-5-18.64-16-22.86L162.75,0C151.29,0,145,9.48,145,21V201C145,212.52,149,220,164,226Z"/><path class="cls-2" d="M164.93,219l322,127.5A14.14,14.14,0,0,0,501,332.32V160.15c0-7.83-7-11.15-14.11-14.18L165.12,9A14.15,14.15,0,0,0,151,23.18v182C151,213,156,216,164.93,219Z"/><path class="cls-3" d="M327.51,518.71,9.13,381.12a20.75,20.75,0,0,1,.11-29.34L131.07,230c8.13-8.14,16.69-9.64,27.43-4.87L488,360c8.07,8.08,5.8,19.21-2.33,27.34L358.56,514.45C350.43,522.58,342.32,525.05,327.51,518.71Z"/><path class="cls-4" d="M325.64,515.55,6.55,377.48a20.8,20.8,0,0,1,.08-29.41l122-122c8.15-8.14,16.72-9.64,27.48-4.85l330.25,135.4c8.1,8.1,5.84,19.25-2.31,27.39L356.76,511.31C348.61,519.45,340.49,521.92,325.64,515.55Z"/><path class="cls-5" d="M206.53,452l-97.77-43.5a4.33,4.33,0,0,1-.08-6.12l36.64-36.64c1.67-1.67,3.9-.85,6.12.08l99.74,41.44a4.32,4.32,0,0,1,.08,6.11l-38.74,38.74C210.85,453.73,209.13,453.27,206.53,452Z"/><path class="cls-5" d="M384.49,455.5,72.11,325.42C65.78,320.66,63,313.63,66,309.71l82.52-80.26c3-3.92,9.85-1.32,16.79,1.53L478.11,359.21c6.32,4.76,9.06,11.8,6.11,15.71L401,457.11C398,461,392.89,459.47,384.49,455.5Z"/><path class="cls-6" d="M390.07,444.54l-31.54-14a1.38,1.38,0,0,1,0-2l11.82-11.82c.54-.54,1.26-.27,2,0l32.18,13.36a1.4,1.4,0,0,1,0,2L392,444.58C391.46,445.12,390.9,445,390.07,444.54Z"/><path class="cls-6" d="M344.07,425.54l-31.54-14a1.38,1.38,0,0,1,0-2l11.82-11.82c.54-.54,1.26-.27,2,0l32.18,13.36a1.4,1.4,0,0,1,0,2L346,425.58C345.46,426.12,344.9,426,344.07,425.54Z"/><path class="cls-6" d="M298.07,406.54l-31.54-14a1.38,1.38,0,0,1,0-2l11.82-11.82c.54-.54,1.26-.27,2,0l32.18,13.36a1.4,1.4,0,0,1,0,2L300,406.58C299.46,407.12,298.9,407,298.07,406.54Z"/><path class="cls-6" d="M160.07,349.54l-31.54-14a1.38,1.38,0,0,1,0-2l11.82-11.82c.54-.54,1.26-.27,2,0l32.18,13.36a1.4,1.4,0,0,1,0,2L162,349.58C161.46,350.12,160.9,350,160.07,349.54Z"/><path class="cls-6" d="M114.07,330.54l-31.54-14a1.38,1.38,0,0,1,0-2l11.82-11.82c.54-.54,1.26-.27,2,0l32.18,13.36a1.4,1.4,0,0,1,0,2L116,330.58C115.46,331.12,114.9,331,114.07,330.54Z"/><path class="cls-6" d="M320.57,384,289,370a1.38,1.38,0,0,1,0-2l11.82-11.82c.54-.54,1.26-.27,2,0L335,369.61a1.4,1.4,0,0,1,0,2L322.5,384.08C322,384.62,321.4,384.47,320.57,384Z"/><path class="cls-6" d="M363.57,402,332,388a1.38,1.38,0,0,1,0-2l11.82-11.82c.54-.54,1.26-.27,2,0L378,387.61a1.4,1.4,0,0,1,0,2L365.5,402.08C365,402.62,364.4,402.47,363.57,402Z"/><path class="cls-6" d="M410.57,422,379,408a1.38,1.38,0,0,1,0-2l11.82-11.82c.54-.54,1.26-.27,2,0L425,407.61a1.4,1.4,0,0,1,0,2L412.5,422.08C412,422.62,411.4,422.47,410.57,422Z"/><path class="cls-6" d="M274.57,365,243,351a1.38,1.38,0,0,1,0-2l11.82-11.82c.54-.54,1.26-.27,2,0L289,350.61a1.4,1.4,0,0,1,0,2L276.5,365.08C276,365.62,275.4,365.47,274.57,365Z"/><path class="cls-6" d="M228.57,346,197,332a1.38,1.38,0,0,1,0-2l11.82-11.82c.54-.54,1.26-.27,2,0L243,331.61a1.4,1.4,0,0,1,0,2L230.5,346.08C230,346.62,229.4,346.47,228.57,346Z"/><path class="cls-6" d="M182.57,327,151,313a1.38,1.38,0,0,1,0-2l11.82-11.82c.54-.54,1.26-.27,2,0L197,312.61a1.4,1.4,0,0,1,0,2L184.5,327.08C184,327.62,183.4,327.47,182.57,327Z"/><path class="cls-6" d="M136.57,308,105,294a1.38,1.38,0,0,1,0-2l11.82-11.82c.54-.54,1.26-.27,2,0L151,293.61a1.4,1.4,0,0,1,0,2L138.5,308.08C138,308.62,137.4,308.47,136.57,308Z"/><path class="cls-6" d="M434.57,400,403,386a1.38,1.38,0,0,1,0-2l11.82-11.82c.54-.54,1.26-.27,2,0L449,385.61a1.4,1.4,0,0,1,0,2L436.5,400.08C436,400.62,435.4,400.47,434.57,400Z"/><path class="cls-6" d="M388.57,381,357,367a1.38,1.38,0,0,1,0-2l11.82-11.82c.54-.54,1.26-.27,2,0L403,366.61a1.4,1.4,0,0,1,0,2L390.5,381.08C390,381.62,389.4,381.47,388.57,381Z"/><path class="cls-6" d="M342.57,362,311,348a1.38,1.38,0,0,1,0-2l11.82-11.82c.54-.54,1.26-.27,2,0L357,347.61a1.4,1.4,0,0,1,0,2L344.5,362.08C344,362.62,343.4,362.47,342.57,362Z"/><path class="cls-6" d="M296.57,343,265,329a1.38,1.38,0,0,1,0-2l11.82-11.82c.54-.54,1.26-.27,2,0L311,328.61a1.4,1.4,0,0,1,0,2L298.5,343.08C298,343.62,297.4,343.47,296.57,343Z"/><path class="cls-6" d="M250.57,324,219,310a1.38,1.38,0,0,1,0-2l11.82-11.82c.54-.54,1.26-.27,2,0L265,309.61a1.4,1.4,0,0,1,0,2L252.5,324.08C252,324.62,251.4,324.47,250.57,324Z"/><path class="cls-6" d="M204.57,305,173,291a1.38,1.38,0,0,1,0-2l11.82-11.82c.54-.54,1.26-.27,2,0L219,290.61a1.4,1.4,0,0,1,0,2L206.5,305.08C206,305.62,205.4,305.47,204.57,305Z"/><path class="cls-6" d="M158.57,286,127,272a1.38,1.38,0,0,1,0-2l11.82-11.82c.54-.54,1.26-.27,2,0L173,271.61a1.4,1.4,0,0,1,0,2L160.5,286.08C160,286.62,159.4,286.47,158.57,286Z"/><path class="cls-7" d="M456.57,378,425,364a1.38,1.38,0,0,1,0-2l11.82-11.82c.54-.54,1.26-.27,2,0L471,363.61a1.4,1.4,0,0,1,0,2L458.5,378.08C458,378.62,457.4,378.47,456.57,378Z"/><path class="cls-6" d="M410.57,359,379,345a1.38,1.38,0,0,1,0-2l11.82-11.82c.54-.54,1.26-.27,2,0L425,344.61a1.4,1.4,0,0,1,0,2L412.5,359.08C412,359.62,411.4,359.47,410.57,359Z"/><path class="cls-6" d="M364.57,340,333,326a1.38,1.38,0,0,1,0-2l11.82-11.82c.54-.54,1.26-.27,2,0L379,325.61a1.4,1.4,0,0,1,0,2L366.5,340.08C366,340.62,365.4,340.47,364.57,340Z"/><path class="cls-6" d="M318.57,321,287,307a1.38,1.38,0,0,1,0-2l11.82-11.82c.54-.54,1.26-.27,2,0L333,306.61a1.4,1.4,0,0,1,0,2L320.5,321.08C320,321.62,319.4,321.47,318.57,321Z"/><path class="cls-6" d="M272.57,302,241,288a1.38,1.38,0,0,1,0-2l11.82-11.82c.54-.54,1.26-.27,2,0L287,287.61a1.4,1.4,0,0,1,0,2L274.5,302.08C274,302.62,273.4,302.47,272.57,302Z"/><path class="cls-6" d="M226.57,283,195,269a1.38,1.38,0,0,1,0-2l11.82-11.82c.54-.54,1.26-.27,2,0L241,268.61a1.4,1.4,0,0,1,0,2L228.5,283.08C228,283.62,227.4,283.47,226.57,283Z"/><path class="cls-6" d="M180.57,264,149,250a1.38,1.38,0,0,1,0-2l11.82-11.82c.54-.54,1.26-.27,2,0L195,249.61a1.4,1.4,0,0,1,0,2L182.5,264.08C182,264.62,181.4,264.47,180.57,264Z"/><path class="cls-6" d="M186.67,340.4,265.72,374a3.93,3.93,0,0,1,1,6.61l-4.71,4a9.84,9.84,0,0,1-10,1.65L174,355.08a3.94,3.94,0,0,1-.92-6.78l9.72-7.41A3.91,3.91,0,0,1,186.67,340.4Z"/></g></g></svg>