<svg xmlns="http://www.w3.org/2000/svg" viewBox="0 0 236.26 44"><defs><style>.cls-1{fill:#c5ccd4;}</style></defs><title>iitheworld</title><g id="레이어_2" data-name="레이어 2"><g id="레이어_1-2" data-name="레이어 1"><polygon class="cls-1" points="24.53 44 8.51 0 0 0 16.02 44 24.53 44"/><polygon class="cls-1" points="56.51 44 72.53 0 64.02 0 48 44 56.51 44"/><polygon class="cls-1" points="56.53 44 40.51 0 32 0 48.02 44 56.53 44"/><polygon points="24.51 44 40.53 0 32.02 0 16 44 24.51 44"/><path d="M92.75,9c.21.14.22.46,0,1l-.2.63a4.3,4.3,0,0,0-.08.82v19h2.15q3,0,6.6-.31A69,69,0,0,0,109.39,29l.51,5q-5.79.86-10.59,1.25c-2.71.23-5.36.36-8,.39H86.73V8.72h3.32A8.85,8.85,0,0,1,92.75,9ZM118.41,6.1q.36.2,0,1c-.13.36-.23.65-.31.86A5.22,5.22,0,0,0,118,9.11V22.2h5v5.07h-5V43.33H112.2V5.83h3.24A9,9,0,0,1,118.41,6.1Z"/><path class="cls-1" d="M132.77,35.87l4.31-.33c0,.3.06.68.12,1.15.05.31.13.72.22,1.21l-4.4.31-4.94.33c-.35,0-.68.05-1,.1l-.66.16a1.32,1.32,0,0,1-.6,0q-.18-.08-.3-.57L125,36.18c.53,0,1.21,0,2.06-.06s1.85-.06,2.83-.11V32.69A5.42,5.42,0,0,1,127,31.22a4.35,4.35,0,0,1-1.29-3.2,4.47,4.47,0,0,1,1.72-3.71,5.74,5.74,0,0,1,3.67-1.2,5.59,5.59,0,0,1,3.61,1.2A4.46,4.46,0,0,1,136.4,28a4.34,4.34,0,0,1-1.09,3,5.12,5.12,0,0,1-2.54,1.54Zm-3.6-9.69a2.79,2.79,0,0,0-.62,1.9,2.34,2.34,0,0,0,.62,1.68,2.58,2.58,0,0,0,1.88.68,2.45,2.45,0,0,0,1.82-.68,2.31,2.31,0,0,0,.66-1.68,2.7,2.7,0,0,0-.66-1.9,2.37,2.37,0,0,0-1.82-.72A2.44,2.44,0,0,0,129.17,26.18Zm12-3.67q.16.09,0,.51l-.16.43a2.6,2.6,0,0,0-.06.56v6.55h2.48V33.1h-2.48v8H138V22.37h1.62A4.49,4.49,0,0,1,141.15,22.51Z"/><path class="cls-1" d="M172.12,8.41c.16.15.09.48-.19,1l-.31.67a3.37,3.37,0,0,0-.2.82c-.08,1.59-.13,2.86-.16,3.83a31.91,31.91,0,0,0,.12,3.63,23.26,23.26,0,0,0,2.19,7.81,15.4,15.4,0,0,0,5.55,6.25,23,23,0,0,0-1.88,2,28.06,28.06,0,0,0-1.72,2.3,14.52,14.52,0,0,1-4.41-4.88,20,20,0,0,1-2.31-5.47,22.42,22.42,0,0,1-2.57,6,20.77,20.77,0,0,1-4.54,5.55,15.53,15.53,0,0,0-1.75-2A21.93,21.93,0,0,0,157.83,34a18.47,18.47,0,0,0,6.25-8.47Q166.57,19,166.5,8.13h3.36A5.09,5.09,0,0,1,172.12,8.41Zm14.73-2c.21.16.23.53.08,1.1a4.44,4.44,0,0,0-.2.74,6,6,0,0,0-.07.94V42.67h-5.47v-19h-4.85V18.84h4.85V6.18h3.16A6.47,6.47,0,0,1,186.85,6.45Zm7.93-.39c.18.13.18.45,0,.94-.1.29-.18.52-.23.7a4.24,4.24,0,0,0-.08.86V43.33H188.8V5.83h3.56A7.22,7.22,0,0,1,194.78,6.06Z"/><path class="cls-1" d="M214.39,7c.18.13.16.46-.08,1-.1.28-.18.52-.23.7a3.19,3.19,0,0,0-.12.86,12.31,12.31,0,0,0,2.34,6.68,16.35,16.35,0,0,0,7.15,6.13,22.11,22.11,0,0,0-2.22,2,24.88,24.88,0,0,0-2,2.18,22.71,22.71,0,0,1-4.8-3.9,13.79,13.79,0,0,1-3.05-4.5,14.22,14.22,0,0,1-3,4.93A19,19,0,0,1,203,27.43a23.93,23.93,0,0,0-2.07-2,22.64,22.64,0,0,0-2.38-1.84,17,17,0,0,0,7.23-6.09,19.74,19.74,0,0,0,2.73-10.78h3.55A4.82,4.82,0,0,1,214.39,7Zm14,23.79c2.4,1.35,3.6,3.09,3.6,5.19s-1.2,4-3.6,5.4q-4,2.37-11.13,2.38T206,41.42c-2.4-1.41-3.59-3.21-3.59-5.4s1.19-3.84,3.59-5.19q4-2.26,11.25-2.27T228.37,30.83Zm-17.93,2.85c-1.4.6-2.11,1.39-2.11,2.38s.71,2,2.11,2.58a16.9,16.9,0,0,0,6.8,1.06,16.17,16.17,0,0,0,6.64-1.06c1.41-.62,2.11-1.48,2.11-2.58s-.69-1.78-2.07-2.38a18.33,18.33,0,0,0-6.6-.94A19.72,19.72,0,0,0,210.44,33.68ZM230.52,5.87a3.62,3.62,0,0,1,1.1.23.49.49,0,0,1,.27.43,2.52,2.52,0,0,1-.2.71,6.37,6.37,0,0,0-.27.82,4.57,4.57,0,0,0-.12,1v6.68h5v5.08h-5v8.32h-5.78V5.83h2.7C229.23,5.83,230,5.84,230.52,5.87Z"/></g></g></svg>