<svg xmlns="http://www.w3.org/2000/svg" viewBox="0 0 44.05 41.8"><defs><style>.cls-1{fill:#2d2d2d;}</style></defs><title>heart</title><g id="레이어_2" data-name="레이어 2"><g id="레이어_1-2" data-name="레이어 1"><path class="cls-1" d="M6.12,6.12A10.65,10.65,0,0,1,13.86,3a11.36,11.36,0,0,1,7.88,3.36h0L21.33,6h0L20.26,4.89A15.8,15.8,0,0,1,22.51,3,14,14,0,0,0,4,4a14.08,14.08,0,0,0,.25,19.89L5.31,22.8l1.06-1.06A11.07,11.07,0,0,1,6.12,6.12Z"/><path class="cls-1" d="M40.18,4.39A13.28,13.28,0,0,0,30.28.52,14.61,14.61,0,0,0,22.51,3a15.8,15.8,0,0,0-2.25,1.85L21.33,6,22.4,7a11.74,11.74,0,0,1,8-3.5A10.24,10.24,0,0,1,41,14.19a11.8,11.8,0,0,1-3.49,8l.42-.42L39,22.8h0l1,1.06a14.66,14.66,0,0,0,4-9.58A13.27,13.27,0,0,0,40.18,4.39Z"/><polygon class="cls-1" points="39.67 24.3 39.67 24.3 39.67 24.3 39.67 24.3"/><polygon class="cls-1" points="39.03 22.8 39.03 22.8 39.03 22.8 39.03 22.8"/><polygon class="cls-1" points="39.03 22.8 37.96 21.74 37.53 22.16 37.53 22.16 36.89 22.8 22.17 37.53 7.44 22.8 6.37 21.74 4.24 23.87 22.17 41.8 39.67 24.3 39.67 24.3 40.09 23.87 40.08 23.86 39.03 22.8 39.03 22.8"/></g></g></svg>