<svg xmlns="http://www.w3.org/2000/svg" viewBox="0 0 92.4 43.25"><defs><style>.cls-1{fill:#2d2d2d;}</style></defs><title>opic-button</title><g id="레이어_2" data-name="레이어 2"><g id="레이어_1-2" data-name="레이어 1"><path class="cls-1" d="M25.25,21c0,9-7,12.9-12.9,12.9A12,12,0,0,1,0,21.5,12.41,12.41,0,0,1,12.7,8.65C20.4,8.65,25.25,14.1,25.25,21Zm-22.8.4c0,6.7,4.85,10.5,10.05,10.5S22.8,28,22.8,21.1c0-4.55-3.05-10.45-10.1-10.45C5.9,10.65,2.45,15.75,2.45,21.35Z"/><path class="cls-1" d="M31.8,17c0-2.6-.05-5.15-.2-7.75H34l.2,5h.1c1.8-3.25,5.1-5.6,10.1-5.6,7,0,11.55,5.6,11.55,12.1,0,8.4-5.6,13.1-12.15,13.1a10.62,10.62,0,0,1-9.4-4.9h-.1v14.3H31.8Zm2.45,6.6a7.91,7.91,0,0,0,.25,1.9,9.37,9.37,0,0,0,9,6.35c6.1,0,9.9-4.3,9.9-11,0-5.45-3.6-10.2-9.6-10.2a9.34,9.34,0,0,0-9.15,6.6,7.9,7.9,0,0,0-.45,2.1Z"/><path class="cls-1" d="M65.7,2.15A2.09,2.09,0,0,1,63.6,4.3a2.06,2.06,0,0,1-2-2.15A2.15,2.15,0,0,1,63.7,0,2.07,2.07,0,0,1,65.7,2.15Zm-3.25,31.1v-24H64.9v24Z"/><path class="cls-1" d="M92.2,32.1a18.79,18.79,0,0,1-8,1.75c-7.65,0-12.7-5.3-12.7-12.25,0-8,6-12.95,13.65-12.95a14.32,14.32,0,0,1,7.3,1.7l-.9,2a12.94,12.94,0,0,0-6.6-1.6c-7.15,0-11,4.7-11,10.55,0,6.25,4.5,10.45,10.6,10.45a16.08,16.08,0,0,0,7-1.6Z"/></g></g></svg>