<svg xmlns="http://www.w3.org/2000/svg" viewBox="0 0 36.48 42"><defs><style>.cls-1{fill:#2d2d2d;}</style></defs><title>share_1</title><g id="레이어_2" data-name="레이어 2"><g id="레이어_1-2" data-name="레이어 1"><circle class="cls-1" cx="5.27" cy="21" r="5.09"/><path class="cls-1" d="M5.27,26.27A5.27,5.27,0,1,1,10.54,21,5.27,5.27,0,0,1,5.27,26.27Zm0-10.18A4.91,4.91,0,1,0,10.18,21,4.91,4.91,0,0,0,5.27,16.09Z"/><circle class="cls-1" cx="31.21" cy="5.27" r="5.09"/><path class="cls-1" d="M31.21,10.54a5.27,5.27,0,1,1,5.27-5.27A5.27,5.27,0,0,1,31.21,10.54Zm0-10.18a4.91,4.91,0,1,0,4.91,4.91A4.92,4.92,0,0,0,31.21.36Z"/><line class="cls-1" x1="7.15" y1="19.84" x2="31.1" y2="5.18"/><rect class="cls-1" x="5.08" y="10.72" width="28.08" height="3.57" transform="translate(-3.72 11.82) rotate(-31.47)"/><circle class="cls-1" cx="31.21" cy="36.73" r="5.09"/><path class="cls-1" d="M31.21,42a5.27,5.27,0,1,1,5.27-5.27A5.27,5.27,0,0,1,31.21,42Zm0-10.18a4.91,4.91,0,1,0,4.91,4.91A4.92,4.92,0,0,0,31.21,31.82Z"/><line class="cls-1" x1="7.15" y1="22.16" x2="31.1" y2="36.82"/><rect class="cls-1" x="17.34" y="15.45" width="3.57" height="28.08" transform="translate(-16.01 30.41) rotate(-58.54)"/></g></g></svg>