<svg xmlns="http://www.w3.org/2000/svg" viewBox="0 0 625.07 208.05"><title>cry</title><g id="레이어_2" data-name="레이어 2"><g id="레이어_1-2" data-name="레이어 1"><path d="M471,121.05l-58.51-108L562.52,0l.16.28L625.07,111ZM414,14,471.53,120l151.89-9.93L562,1.05Z"/><polygon points="469.73 208.06 345.76 201 342.74 120.39 342.82 120.25 412.82 13.25 413.66 13.8 343.75 120.67 346.72 200.05 468.75 207 470.74 120.52 471.74 120.54 469.73 208.06"/><polygon points="469.27 208.03 469.21 207.03 617.77 197.06 623.74 110.49 624.74 110.56 618.71 198 469.27 208.03"/><polygon points="437.74 206.03 436.74 206.03 436.74 145 378.75 142.05 379.85 202.66 378.85 202.68 377.73 141 437.74 144.05 437.74 206.03"/><rect x="291.74" y="-41.76" width="1" height="266.56" transform="translate(82.66 314.82) rotate(-64.2)"/><rect x="160.07" y="195.53" width="250.34" height="1" transform="matrix(1, -0.05, 0.05, 1, -9.77, 15.04)"/><path d="M93.75,122.35v11.72H0V122.35ZM77.54,144.42q9.38,4.79,9.37,12.4t-9.37,12.4q-10.65,5.47-30.66,5.47-19.74,0-30.18-5.47-9.28-4.87-9.28-12.4t9.28-12.4q10.55-5.37,30.18-5.37Q66.89,139.05,77.54,144.42ZM75.68,85.53q9.57,4.89,9.57,12.4t-9.18,12.5q-10.25,5.47-29.29,5.47t-29.59-5.47q-9.38-4.87-9.38-12.5t9.38-12.4q10.44-5.37,29.59-5.37Q65.14,80.16,75.68,85.53ZM27.83,93.05q-5.56,1.76-5.56,4.88c0,2,1.85,3.55,5.56,4.79q6.35,2.06,18.75,2t18.65-2C69,101.55,70.8,100,70.8,97.93S69,94.22,65.23,93.05q-6.15-1.86-18.65-1.85T27.83,93.05Zm0,58.59q-5.56,1.86-5.56,5.38c0,2.27,1.85,4.13,5.56,5.56Q34.28,165,46.88,165q13,0,19.62-2.44c3.78-1.43,5.67-3.29,5.67-5.56s-1.89-4.14-5.67-5.38q-6.34-2-19.62-2Q34.09,149.59,27.83,151.64Z"/><path d="M141.8,94.71q5.46,9.67,5.47,26.27,0,17-5.47,26.66-5.67,10.26-16,10.25-10.55,0-16.31-10.25Q104.1,138,104.1,121q0-16.5,5.37-26.27,5.76-10.15,16.31-10.16Q136.13,84.55,141.8,94.71Zm-22,8.2q-1.95,6.16-1.95,18.07,0,12.3,1.95,18.56t5.86,6.15c2.48,0,4.36-2.05,5.67-6.15s2.15-10.42,2.15-18.56q0-11.91-2.15-18.07c-1.31-4-3.19-6-5.67-6S121.19,98.88,119.82,102.91Zm71-22.55q.68.48,0,2.34c-.26.72-.46,1.3-.59,1.76a11.94,11.94,0,0,0-.19,2.15v86.91H175.88V132.31h-7.13v37.5h-14V81.43h9.57c3.12,0,5,.2,5.56.59.39.26.33,1-.19,2.14a10.24,10.24,0,0,0-.69,1.66,8.78,8.78,0,0,0-.29,2.25v32h7.13V79.77h8.89C188.09,79.77,190.1,80,190.82,80.36Z"/><path d="M255,125.38a17.21,17.21,0,0,1-5.86,6.54,15.13,15.13,0,0,1-8.4,2.54,16.58,16.58,0,0,1-6.54-1.57,31,31,0,0,1-6.54-3.61l-2-1.37a26.09,26.09,0,0,0-3.62-2.24,8.67,8.67,0,0,0-3.81-1.08,10.87,10.87,0,0,0-6.93,2c-1.3,1-2.64,2.89-4,5.76l-2-9.47a20.07,20.07,0,0,1,4.69-6.45,12.58,12.58,0,0,1,8.3-2.83,15.5,15.5,0,0,1,5.37,1.37,24.32,24.32,0,0,1,4.79,2.63l1.56,1.17a58.81,58.81,0,0,0,5.18,3.42,11.79,11.79,0,0,0,5.66,1.66,12,12,0,0,0,7.23-2,14.36,14.36,0,0,0,4.88-6.35Z"/></g></g></svg>