<svg xmlns="http://www.w3.org/2000/svg" viewBox="0 0 145.95 138.49"><defs><style>.cls-1{fill:#fff;}</style></defs><title>heart_line</title><g id="레이어_2" data-name="레이어 2"><g id="레이어_1-2" data-name="레이어 1"><path d="M20.28,20.27A35.34,35.34,0,0,1,45.91,10,37.57,37.57,0,0,1,72,21.11h0l-1.36-1.36h0l-3.53-3.53a50.31,50.31,0,0,1,7.44-6.15C56.15-4.29,29.74-3.33,13.21,13.2-4.72,31.14-4.35,60.7,14,79.09l3.54-3.53L21.12,72C6.62,57.52,6.25,34.31,20.28,20.27Z"/><path d="M133.11,14.53A44.08,44.08,0,0,0,100.33,1.71a48.28,48.28,0,0,0-25.75,8.36,50.31,50.31,0,0,0-7.44,6.15l3.53,3.53,3.54,3.54a38.84,38.84,0,0,1,26.41-11.58A33.89,33.89,0,0,1,135.94,47a38.89,38.89,0,0,1-11.57,26.4l1.4-1.41,3.54,3.54h0l3.5,3.5a48.69,48.69,0,0,0,13.12-31.75A44,44,0,0,0,133.11,14.53Z"/><polygon points="131.43 80.51 131.44 80.5 131.43 80.51 131.43 80.51"/><polygon class="cls-1" points="129.31 75.56 129.31 75.56 129.31 75.56 129.31 75.56"/><polygon points="129.31 75.56 125.77 72.02 124.37 73.43 124.36 73.44 122.23 75.56 73.44 124.35 24.66 75.56 21.12 72.02 14.05 79.09 73.44 138.49 131.43 80.51 131.44 80.5 132.84 79.09 132.81 79.06 129.31 75.56 129.31 75.56"/></g></g></svg>