<svg xmlns="http://www.w3.org/2000/svg" viewBox="0 0 145.95 138.5"><title>heart_full</title><g id="레이어_2" data-name="레이어 2"><g id="레이어_1-2" data-name="레이어 1"><path d="M17.58,75.56C1.11,59.09.73,32.76,16.75,16.75s42.34-15.64,58.81.83"/><path d="M14,79.1C-4.35,60.7-4.72,31.15,13.21,13.21S60.7-4.35,79.1,14L72,21.12A37.53,37.53,0,0,0,45.91,10a35.28,35.28,0,0,0-25.63,10.3c-14,14-13.66,37.25.84,51.75Z"/><path d="M70.67,19.76C87.4,3,113.78,2.27,129.58,18.07s15,42.18-1.69,58.91"/><path d="M131.43,80.52l-7.07-7.07A38.93,38.93,0,0,0,135.94,47a33.91,33.91,0,0,0-35.32-35.32A38.93,38.93,0,0,0,74.21,23.29l-7.07-7.07a48.78,48.78,0,0,1,33.19-14.5,43.89,43.89,0,0,1,45.6,45.6A48.82,48.82,0,0,1,131.43,80.52Z"/><polyline points="129.31 75.57 73.45 131.43 17.58 75.57"/><polygon points="73.44 138.5 14.05 79.1 21.12 72.03 73.44 124.36 125.77 72.03 132.84 79.1 73.44 138.5"/><rect x="22.05" y="19.79" width="100" height="55"/><path d="M127.05,79.79h-110v-65h110Zm-100-10h90v-45h-90Z"/></g></g></svg>