<svg xmlns="http://www.w3.org/2000/svg" viewBox="0 0 335 300"><title>자산 35</title><g id="레이어_2" data-name="레이어 2"><g id="레이어_1-2" data-name="레이어 1"><path d="M167,26.77h.25a2.41,2.41,0,0,0,1.7-.54,1.5,1.5,0,0,0,.47-1h1.44v9.18h-1.76V28H167Z"/><path d="M153.13,39.83V41.3h-2.44v.43a7.39,7.39,0,0,0,.69,3.18,4.32,4.32,0,0,0,2,2.19,4.18,4.18,0,0,0-.65.58,4.89,4.89,0,0,0-.55.67,5.79,5.79,0,0,1-1.56-1.56,5.52,5.52,0,0,1-.88-2.18,6.92,6.92,0,0,1-1,2.23,7.12,7.12,0,0,1-1.65,1.68q-.3-.35-.63-.66a5.66,5.66,0,0,0-.71-.59,5.37,5.37,0,0,0,2.32-2.41,6.6,6.6,0,0,0,.87-3.13V41.3h-2.43V39.83Zm2.62-.88c.07,0,.07.14,0,.31l-.1.26a1.87,1.87,0,0,0,0,.34v3.92h1.49V45.3h-1.49v4.82h-1.74V38.87h1A2.84,2.84,0,0,1,155.75,39Z"/><path d="M169,44.74v1.47h-2.69v3.91h-1.74V46.21h-2.35V50h-1.74V46.21h-2.73V44.74Zm-2.07-4.92a1.84,1.84,0,0,1,0,3.38,9.48,9.48,0,0,1-7.1,0,1.83,1.83,0,0,1,0-3.36,9.74,9.74,0,0,1,7.1,0Zm-5.81.93c-.43.16-.65.41-.65.76s.22.6.65.76a6.72,6.72,0,0,0,2.25.27,6.83,6.83,0,0,0,2.26-.27c.44-.16.67-.42.67-.76s-.23-.6-.67-.76a7.24,7.24,0,0,0-2.26-.25A7.13,7.13,0,0,0,161.13,40.75Z"/><path d="M179.83,39.62v3.82h-7.11v1.13H180V46h-3.79v1.29H181v1.5H169.76v-1.5h4.76V46H171V42h7.11v-1H171V39.62Z"/><path d="M193,44.2v1.43h-4.72v1.89h-1.72V45.63h-4.81V44.2Zm-2.15-4.57a1.79,1.79,0,0,1,0,3.35,8.86,8.86,0,0,1-7,0,1.79,1.79,0,0,1,0-3.35,9.61,9.61,0,0,1,7,0Zm-6.06,6.75c.06,0,.07.14,0,.31a1.67,1.67,0,0,1-.06.2,1.64,1.64,0,0,0,0,.23v1.23H192v1.47h-9V46.29h1A2,2,0,0,1,184.8,46.38Zm.39-5.82c-.47.17-.7.42-.7.76s.23.59.7.77a6.18,6.18,0,0,0,2.16.29,6.54,6.54,0,0,0,2.21-.29c.48-.18.72-.44.72-.77s-.24-.59-.72-.76a7.21,7.21,0,0,0-2.21-.26A6.85,6.85,0,0,0,185.19,40.56Z"/><path d="M153.13,54.23V55.7h-2.44v.43a7.39,7.39,0,0,0,.69,3.18,4.32,4.32,0,0,0,2,2.19,4.18,4.18,0,0,0-.65.58,4.89,4.89,0,0,0-.55.67,5.79,5.79,0,0,1-1.56-1.56,5.52,5.52,0,0,1-.88-2.18,6.92,6.92,0,0,1-1,2.23,7.12,7.12,0,0,1-1.65,1.68q-.3-.35-.63-.66a5.66,5.66,0,0,0-.71-.59,5.37,5.37,0,0,0,2.32-2.41,6.6,6.6,0,0,0,.87-3.13V55.7h-2.43V54.23Zm2.62-.88c.07,0,.07.14,0,.31l-.1.26a1.76,1.76,0,0,0,0,.33v3.93h1.49V59.7h-1.49v4.82h-1.74V53.27h1A2.84,2.84,0,0,1,155.75,53.35Z"/><path d="M167.87,53.58c.06,0,.07.12,0,.25s0,.11-.05.14,0,.12,0,.18V58h-3.4V59H169V60.5H157.76V59h5V58H159V53.5h1a2,2,0,0,1,.75.08c.07,0,.07.11,0,.24l-.05.13a1.09,1.09,0,0,0,0,.18v.44h5.39V53.5h1A2.28,2.28,0,0,1,167.87,53.58Zm-7.07,7.2c.06,0,.07.14,0,.31a1.67,1.67,0,0,1-.06.2,1.64,1.64,0,0,0,0,.23v1.23H168v1.47h-9V60.69h1A2,2,0,0,1,160.8,60.78Zm-.08-4.12h5.39v-.8h-5.39Z"/><path d="M175.38,55.05a6,6,0,0,1,.72,3.2,6,6,0,0,1-.72,3.19,2.69,2.69,0,0,1-4.49,0,5.86,5.86,0,0,1-.73-3.19,5.9,5.9,0,0,1,.73-3.2,2.69,2.69,0,0,1,4.49,0Zm-3.19,1a6.2,6.2,0,0,0-.29,2.23,6.1,6.1,0,0,0,.29,2.22,1,1,0,0,0,1.89,0,5.88,5.88,0,0,0,.31-2.22,6,6,0,0,0-.31-2.23,1,1,0,0,0-1.89,0Zm8-2.69c.06,0,.06.11,0,.25a1.83,1.83,0,0,0-.06.19,1.45,1.45,0,0,0,0,.29V64.52H178.4V53.27h1A2.79,2.79,0,0,1,180.22,53.33Z"/><path d="M191.78,53.55v1.34h-7V56H192v1.34h-3.73v1.09H193v1.46H181.76V58.38h4.77V57.29H183V53.55ZM191.07,61a1.54,1.54,0,0,1,0,3,8.2,8.2,0,0,1-3.68.66,7.92,7.92,0,0,1-3.62-.66,1.54,1.54,0,0,1,0-3,8.13,8.13,0,0,1,3.62-.65A8.36,8.36,0,0,1,191.07,61Zm-6,.87c-.44.14-.66.36-.66.64s.22.5.66.67a7,7,0,0,0,2.29.29,7.32,7.32,0,0,0,2.35-.29c.46-.17.68-.4.68-.67s-.22-.5-.68-.64a8,8,0,0,0-2.35-.25A7.68,7.68,0,0,0,185.1,61.9Z"/><path d="M46.47,230.31a3.25,3.25,0,0,1,1.14-2.81,2.93,2.93,0,0,1,1.74-.51,3,3,0,0,1,2.14.76,2.88,2.88,0,0,1,.88,2.21,3.11,3.11,0,0,1-.6,1.91A5.91,5.91,0,0,1,50.56,233l-.47.35c-.53.42-.88.7-1,.85a1.77,1.77,0,0,0-.48.59h3.82v1.57h-6a4.91,4.91,0,0,1,.33-1.67,5.79,5.79,0,0,1,1.75-2l.17-.15a12.63,12.63,0,0,0,1.56-1.31,1.92,1.92,0,0,0,.49-1.31,1.49,1.49,0,0,0-.3-1,1.13,1.13,0,0,0-.94-.43,1.09,1.09,0,0,0-1.09.66,3,3,0,0,0-.17,1.14Z"/><path d="M35.78,241.15v1.34h-7v1.06H36v1.34H32.26v1H37v1.45H25.76v-1.45h4.77v-1H27v-3.74Zm0,6.85v4.12H34.1v-2.66H27V248Z"/><path d="M45.13,241.83v1.47H42.69v.43a7.39,7.39,0,0,0,.69,3.18,4.32,4.32,0,0,0,2,2.19,4.18,4.18,0,0,0-.65.58,4.89,4.89,0,0,0-.55.67,5.79,5.79,0,0,1-1.56-1.56,5.52,5.52,0,0,1-.88-2.18,6.92,6.92,0,0,1-1,2.23,7.12,7.12,0,0,1-1.65,1.68q-.3-.35-.63-.66a5.66,5.66,0,0,0-.71-.59,5.37,5.37,0,0,0,2.32-2.41,6.6,6.6,0,0,0,.87-3.13v-.43H38.51v-1.47Zm2.62-.88c.07,0,.07.14,0,.31l-.1.26a1.87,1.87,0,0,0,0,.34v3.92h1.49v1.52H47.62v4.82H45.88V240.87h1A2.84,2.84,0,0,1,47.75,241Z"/><path d="M56.81,241.45v1.48H54.6v.25a1.45,1.45,0,0,0,.19.6,4,4,0,0,0,.56.74,4.88,4.88,0,0,0,.89.68,3.84,3.84,0,0,0,1.18.45,6.4,6.4,0,0,0-.55.66,5.84,5.84,0,0,0-.5.76,6.4,6.4,0,0,1-1.64-1,3.47,3.47,0,0,1-1-1.14,3.3,3.3,0,0,1-1,1.18A7.14,7.14,0,0,1,51,247.21a5.66,5.66,0,0,0-.58-.66c-.23-.23-.46-.44-.68-.62a4.09,4.09,0,0,0,1.27-.44,4.7,4.7,0,0,0,1-.74,3.68,3.68,0,0,0,.65-.86,1.44,1.44,0,0,0,.25-.73v-.23H50.58v-1.48Zm3.32,6.48v4.19H58.4v-2.74H51.06v-1.45Zm.13-7c.08.05.09.16,0,.33a1.49,1.49,0,0,0-.1.26,1.34,1.34,0,0,0,0,.35V247H58.4v-2.28H56.48v-1.42H58.4v-2.44h1A3,3,0,0,1,60.26,240.94Z"/><path d="M67.61,242.05a3.41,3.41,0,0,1,0,4.27,2.93,2.93,0,0,1-2.3.91,3,3,0,1,1,0-6.08A3,3,0,0,1,67.61,242.05ZM65,248.31c.06.05.06.15,0,.31a1.36,1.36,0,0,0-.06.2,1.64,1.64,0,0,0,0,.23v1.3h7.33v1.47H63.19v-3.59h1A2.31,2.31,0,0,1,65,248.31ZM64.25,243a2.22,2.22,0,0,0,0,2.33,1.27,1.27,0,0,0,1.06.47,1.18,1.18,0,0,0,1-.47,1.89,1.89,0,0,0,.33-1.17,1.86,1.86,0,0,0-.33-1.16,1.19,1.19,0,0,0-1-.45A1.29,1.29,0,0,0,64.25,243Zm8-2.09q.09,0,0,.27a1.3,1.3,0,0,0-.06.19,1,1,0,0,0,0,.24v7.52H70.4v-8.29h1A2.31,2.31,0,0,1,72.22,240.94Z"/><path d="M35.84,255.41v1.21H28.71v.5h7.13v1.24H28.71v.57h7.23v1.24H32.3l0,.32v.41H37v1.38H25.76V260.9h4.8v-.73H27v-4.76ZM35,263.26c.75.37,1.12.83,1.12,1.37s-.37,1-1.12,1.36a8,8,0,0,1-3.62.67,7.65,7.65,0,0,1-3.53-.67c-.73-.37-1.1-.82-1.1-1.36s.37-1,1.1-1.37a8.21,8.21,0,0,1,3.53-.62A8.54,8.54,0,0,1,35,263.26Zm-5.87.87c-.39.12-.59.29-.59.5s.2.41.59.54a7.24,7.24,0,0,0,2.25.26,7.88,7.88,0,0,0,2.33-.26c.41-.13.62-.31.62-.54s-.21-.38-.62-.5a9.42,9.42,0,0,0-2.33-.21A8.74,8.74,0,0,0,29.13,264.13Z"/><path d="M39.5,263.75c.58,0,1.11,0,1.59-.07v-1.12A3.44,3.44,0,0,1,39.6,262a1.57,1.57,0,0,1-.66-1.29,1.66,1.66,0,0,1,1-1.54,4.91,4.91,0,0,1,3.93,0,1.67,1.67,0,0,1,1,1.54,1.5,1.5,0,0,1-.62,1.24,3.06,3.06,0,0,1-1.39.57v1.11l1.43-.11,1.19-.12.26,1.28-1.9.14-2.13.14-2.1.14a2.22,2.22,0,0,0-.45,0l-.3.07a.65.65,0,0,1-.32,0q-.1,0-.18-.24l-.26-1.24Zm6-6.57v1.34H38.24v-1.34Zm-1.65-1.73v1.32H40.13v-1.32Zm-2.88,4.66a.7.7,0,0,0-.28.6.63.63,0,0,0,.28.55,1.59,1.59,0,0,0,1,.23,1.51,1.51,0,0,0,.92-.23.63.63,0,0,0,.3-.55.67.67,0,0,0-.3-.6,1.54,1.54,0,0,0-.92-.22A1.65,1.65,0,0,0,40.94,260.11Zm6.81-4.76c.07,0,.07.14,0,.31l-.1.26a1.76,1.76,0,0,0,0,.33v3.93h1.49v1.52H47.62v4.82H45.88V255.27h1A2.84,2.84,0,0,1,47.75,255.35Z"/><path d="M56.81,255.84v1.49H54.6v.25a1.45,1.45,0,0,0,.19.6,4,4,0,0,0,.56.74,4.42,4.42,0,0,0,.89.67,3.63,3.63,0,0,0,1.18.46,6.4,6.4,0,0,0-.55.66,5.84,5.84,0,0,0-.5.76,6.4,6.4,0,0,1-1.64-1,3.47,3.47,0,0,1-1-1.14,3.3,3.3,0,0,1-1,1.18A7.14,7.14,0,0,1,51,261.61a5.66,5.66,0,0,0-.58-.66c-.23-.23-.46-.44-.68-.62a4.09,4.09,0,0,0,1.27-.44,4.7,4.7,0,0,0,1-.74,3.68,3.68,0,0,0,.65-.86,1.44,1.44,0,0,0,.25-.73v-.23H50.58v-1.49Zm2.34,6.93a1.79,1.79,0,0,1,1.09,1.57A1.85,1.85,0,0,1,59.15,266a6.75,6.75,0,0,1-3.39.7,6.87,6.87,0,0,1-3.42-.7,1.85,1.85,0,0,1-1.08-1.62,1.8,1.8,0,0,1,1.08-1.57,7.12,7.12,0,0,1,3.42-.68A7,7,0,0,1,59.15,262.77Zm-5.46.87c-.43.17-.65.41-.65.72s.22.57.64.75a5.14,5.14,0,0,0,2.08.32,5,5,0,0,0,2.05-.32c.43-.18.64-.43.64-.75s-.21-.55-.64-.72a5.26,5.26,0,0,0-2-.3A5.7,5.7,0,0,0,53.69,263.64Zm6.57-8.3c.08,0,.09.16,0,.33a1.49,1.49,0,0,0-.1.26,1.34,1.34,0,0,0,0,.35v6.06H58.4v-3.26H56.2v-1.42h2.2v-2.39h1A3,3,0,0,1,60.26,255.34Z"/><path d="M67.76,257.18v1.4H66a1.82,1.82,0,0,0,.56,1.11,2.46,2.46,0,0,0,1.4.83,3.82,3.82,0,0,0-.53.63,6.42,6.42,0,0,0-.39.69,3.81,3.81,0,0,1-1.13-.69,2.78,2.78,0,0,1-.74-.91,3.46,3.46,0,0,1-.88,1,6.73,6.73,0,0,1-1.32.8,5,5,0,0,0-.46-.65,7,7,0,0,0-.6-.62,3.62,3.62,0,0,0,1.78-.94,1.76,1.76,0,0,0,.69-1.21H62.44v-1.4Zm4.81,5.18v4.16H70.83v-2.69h-7.3v-1.47Zm-5.9-7v1.27H63.62v-1.27Zm6-.07c.06,0,.06.13,0,.28l-.07.21a2.28,2.28,0,0,0,0,.26v5.56h-1.7v-1.83H70v1.83H68.34v-6.24h1.15a1.63,1.63,0,0,1,.66.07s0,.12,0,.26a.75.75,0,0,0-.08.2,1.1,1.1,0,0,0,0,.27v2.14h.86v-3.08h1.07A2,2,0,0,1,72.66,255.34Z"/><path d="M285.67,232h.27a2,2,0,0,0,.94-.19,1.12,1.12,0,0,0,.55-1.09,1.44,1.44,0,0,0-.2-.83,1,1,0,0,0-.9-.42,1.06,1.06,0,0,0-1.07.65,2.58,2.58,0,0,0-.14.9h-1.61a3.09,3.09,0,0,1,.7-2.13,2.81,2.81,0,0,1,2.21-.85,2.92,2.92,0,0,1,1.82.56,2.43,2.43,0,0,1,.93,2.06,2.06,2.06,0,0,1-.34,1.16,1.74,1.74,0,0,1-.72.61v0a1.68,1.68,0,0,1,.77.52,2.51,2.51,0,0,1,.54,1.71,2.79,2.79,0,0,1-.83,2.11,2.94,2.94,0,0,1-2.17.82,3.59,3.59,0,0,1-1.85-.44,2.81,2.81,0,0,1-1.22-2.59h1.7a2,2,0,0,0,.2,1,1.13,1.13,0,0,0,1.1.61,1.27,1.27,0,0,0,.94-.35,1.59,1.59,0,0,0,.38-1.15,1.21,1.21,0,0,0-.71-1.22,3.43,3.43,0,0,0-1.29-.19Z"/><path d="M274.61,243.05a3.41,3.41,0,0,1,0,4.27,2.93,2.93,0,0,1-2.3.91,3,3,0,1,1,0-6.08A3,3,0,0,1,274.61,243.05ZM272,249.3c.07,0,.07.14,0,.31a1.25,1.25,0,0,1-.06.18,1.94,1.94,0,0,0,0,.24v1.32h7v1.47h-8.73v-3.61h1A2,2,0,0,1,272,249.3Zm-.78-5.27a2.22,2.22,0,0,0,0,2.33,1.27,1.27,0,0,0,1.06.47,1.18,1.18,0,0,0,1-.47,1.89,1.89,0,0,0,.33-1.17,1.86,1.86,0,0,0-.33-1.16,1.19,1.19,0,0,0-1-.45A1.29,1.29,0,0,0,271.25,244Zm7.13-2.15a1.19,1.19,0,0,1,.33.07.14.14,0,0,1,.08.13.59.59,0,0,1-.05.21c0,.1-.07.19-.09.25a1.66,1.66,0,0,0,0,.32v2.87h1.49v1.53h-1.49v2.9h-1.74v-8.29h1.5Z"/><path d="M287.81,242.45v1.48H285.6v.25a1.45,1.45,0,0,0,.19.6,4,4,0,0,0,.56.74,4.88,4.88,0,0,0,.89.68,3.84,3.84,0,0,0,1.18.45,6.4,6.4,0,0,0-.55.66,5.84,5.84,0,0,0-.5.76,6.4,6.4,0,0,1-1.64-1,3.47,3.47,0,0,1-1-1.14,3.3,3.3,0,0,1-1,1.18,7.14,7.14,0,0,1-1.77,1.07,5.66,5.66,0,0,0-.58-.66c-.23-.23-.46-.44-.68-.62a4.09,4.09,0,0,0,1.27-.44,4.7,4.7,0,0,0,1-.74,3.68,3.68,0,0,0,.65-.86,1.44,1.44,0,0,0,.25-.73v-.23h-2.35v-1.48Zm2.34,6.92a1.79,1.79,0,0,1,1.09,1.57,1.85,1.85,0,0,1-1.09,1.62,6.75,6.75,0,0,1-3.39.7,6.87,6.87,0,0,1-3.42-.7,1.85,1.85,0,0,1-1.08-1.62,1.8,1.8,0,0,1,1.08-1.57,7.12,7.12,0,0,1,3.42-.68A7,7,0,0,1,290.15,249.37Zm-5.46.87c-.43.17-.65.41-.65.72s.22.57.64.75a5.14,5.14,0,0,0,2.08.32,5,5,0,0,0,2.05-.32c.43-.18.64-.43.64-.75s-.21-.55-.64-.72a5.29,5.29,0,0,0-2-.29A5.73,5.73,0,0,0,284.69,250.24Zm6.57-8.3c.08.05.09.16,0,.33a1.49,1.49,0,0,0-.1.26,1.34,1.34,0,0,0-.05.35v6.06H289.4v-3.26h-2.2v-1.42h2.2v-2.39h1A3,3,0,0,1,291.26,241.94Z"/><path d="M299.81,242.45v1.48H297.6v.25a1.45,1.45,0,0,0,.19.6,4,4,0,0,0,.56.74,4.88,4.88,0,0,0,.89.68,3.84,3.84,0,0,0,1.18.45,6.4,6.4,0,0,0-.55.66,5.84,5.84,0,0,0-.5.76,6.4,6.4,0,0,1-1.64-1,3.47,3.47,0,0,1-1-1.14,3.3,3.3,0,0,1-1,1.18,7.14,7.14,0,0,1-1.77,1.07,5.66,5.66,0,0,0-.58-.66c-.23-.23-.46-.44-.68-.62a4.09,4.09,0,0,0,1.27-.44,4.7,4.7,0,0,0,1-.74,3.68,3.68,0,0,0,.65-.86,1.44,1.44,0,0,0,.25-.73v-.23h-2.35v-1.48Zm3.32,6.48v4.19H301.4v-2.74h-7.34v-1.45Zm.13-7c.08.05.09.16,0,.33a1.49,1.49,0,0,0-.1.26,1.34,1.34,0,0,0-.05.35V248H301.4v-2.28h-1.92v-1.42h1.92v-2.44h1A3,3,0,0,1,303.26,241.94Z"/><path d="M275.65,262.5h1.11l1.33,0V262a2.81,2.81,0,0,1-1.29-.41,1.16,1.16,0,0,1-.54-1,1.08,1.08,0,0,1,.62-1,4.23,4.23,0,0,1,2-.39,4.86,4.86,0,0,1,2.19.4,1.12,1.12,0,0,1,.68,1,1,1,0,0,1-.55.91,3,3,0,0,1-1.39.44v.47l1.18-.06,1.35-.07,0,.37.13.88-3.06.11-2.91.08a1.24,1.24,0,0,0-.38.05,1.14,1.14,0,0,0-.26.05.54.54,0,0,1-.28,0c-.06,0-.12-.11-.17-.27l-.25-1.13Zm6.6-4.65V259H275.7v-1.17Zm-3.75,6.4c.06.05.06.15,0,.31l-.06.17a1.8,1.8,0,0,0,0,.22v.8H285v1.47h-8.29v-3.05h1A2.27,2.27,0,0,1,278.5,264.25Zm2.08-7.78v1.17h-3.25v-1.17Zm-2.36,3.89c-.16.07-.25.16-.25.26s.09.17.25.24a1.77,1.77,0,0,0,.75.13,1.72,1.72,0,0,0,.74-.13c.17-.07.26-.15.26-.24s-.09-.19-.26-.26a2.1,2.1,0,0,0-.74-.11A2.2,2.2,0,0,0,278.22,260.36Zm6.53-4c.07,0,.07.14,0,.31l-.1.26a1.76,1.76,0,0,0,0,.33v3.29h1.49v1.52h-1.49v2.84h-1.74v-8.63h1A2.84,2.84,0,0,1,284.75,256.35Z"/><path d="M298,261v1.29h-2.62v.47h1.45v2.85h-7.15v.61h7.36v1.17H288v-2.93h7.11v-.54H288v-1.16h1.4v-.47h-2.63V261Zm-2.16-3.93c.76.36,1.14.83,1.14,1.43s-.38,1.05-1.14,1.41a8.23,8.23,0,0,1-3.47.6,8.13,8.13,0,0,1-3.47-.6c-.77-.36-1.15-.84-1.15-1.41s.38-1.07,1.15-1.43a10.5,10.5,0,0,1,6.94,0Zm-5.66.82c-.47.14-.7.34-.7.59s.23.44.7.58a7.87,7.87,0,0,0,2.16.22,8.12,8.12,0,0,0,2.19-.22c.48-.14.72-.33.72-.58s-.24-.45-.72-.59a8.62,8.62,0,0,0-2.19-.2A8.36,8.36,0,0,0,290.19,257.88Zm3.5,4.4h-2.6v.47h2.6Z"/><path d="M238,252H97l0-1a47.64,47.64,0,0,0-23.34-41.18l-.42-.25.25-.43,69.26-120,.44.28a48,48,0,0,0,49.68,1.18l.43-.25.25.43L262,209.42l-.42.25A48.23,48.23,0,0,0,238,251ZM98,251H237a49.26,49.26,0,0,1,23.67-41.94L192.94,91.75a49,49,0,0,1-49.85-1.17L74.6,209.22A49.27,49.27,0,0,1,98,251Z"/><path d="M169,98a49,49,0,1,1,24.37-6.5h0A49,49,0,0,1,169,98Zm0-97a48,48,0,1,0,23.87,89.64h0A48,48,0,0,0,169,1Z"/><path d="M286,300a49.15,49.15,0,0,1-49-48.5v-.21a2.71,2.71,0,0,1,0-.29,49,49,0,1,1,49,49Zm0-97a48,48,0,0,0-48,48v.49A48,48,0,1,0,286,203Z"/><path d="M49,300a49,49,0,1,1,25.18-91h0A49.3,49.3,0,0,1,98,251a2.71,2.71,0,0,1,0,.29v.22A49.15,49.15,0,0,1,49,300Zm0-97a48,48,0,1,0,48,48.5V251a47.64,47.64,0,0,0-23.34-41.18h0A47.93,47.93,0,0,0,49,203Z"/></g></g></svg>