<svg xmlns="http://www.w3.org/2000/svg" viewBox="0 0 319.43 79.12"><defs><style>.cls-1{fill:#c5ccd4;}</style></defs><title>자산 26</title><g id="레이어_2" data-name="레이어 2"><g id="레이어_1-2" data-name="레이어 1"><polygon class="cls-1" points="86.31 0 115.11 79.12 130.42 79.12 101.62 0 86.31 0"/><polygon class="cls-1" points="28.8 0 0 79.12 15.31 79.12 44.11 0 28.8 0"/><polygon class="cls-1" points="28.77 0 57.57 79.12 72.88 79.12 44.08 0 28.77 0"/><polygon points="86.34 0 57.54 79.12 72.85 79.12 101.65 0 86.34 0"/><path class="cls-1" d="M199.11,12.86v7H163V27H200.2v7H181.88v7.19h23.58v7.56h-58V41.15H173V34H153.77V12.86Zm-36,37.3c.32.2.34.73.06,1.57-.12.45-.22.79-.3,1a6.21,6.21,0,0,0-.12,1.21v6.35H200.2v7.55H153.77V49.68H159Q162.36,49.68,163.08,50.16Z"/><path class="cls-1" d="M219.22,47.41q.27.12.06.57c-.06.17-.1.29-.12.37a1.5,1.5,0,0,0-.07.45V58l4.39-.36c1.83-.16,3.38-.32,4.65-.46,0,.45.12,1,.25,1.7.1.48.22,1,.36,1.69l-7.44.63c-3.26.29-6.28.53-9,.73a2.8,2.8,0,0,0-.81.18,6.52,6.52,0,0,0-.61.27q-.57.24-.75.15c-.21-.08-.38-.42-.52-1l-.6-3,2.9-.15,2.81-.18v-11h2.48A7.86,7.86,0,0,1,219.22,47.41ZM227,39q0,4.86-.33,8.88a37.61,37.61,0,0,1-1.09,7.29l-4.32-.18a36.76,36.76,0,0,0,.88-5.63,60.81,60.81,0,0,0,.45-6.59H210.9V39Zm7.11-1.73c.18.1.18.36,0,.79l-.24.66a4.31,4.31,0,0,0-.09.88V49.68h3.84v3.93h-3.84V66h-4.48V37h2.51A6.94,6.94,0,0,1,234.12,37.22Z"/><path d="M272.69,16.24c.32.21.34.71.06,1.51-.12.41-.22.73-.3,1a6.59,6.59,0,0,0-.12,1.27V49.43h3.32c3.07,0,6.47-.16,10.22-.48a109.47,109.47,0,0,0,12.58-1.75l.78,7.68q-8.94,1.32-16.38,1.93-6.28.54-12.34.61h-7.13V15.88h5.14A13.33,13.33,0,0,1,272.69,16.24Zm39.72-4.41c.37.2.37.73,0,1.57-.2.57-.36,1-.48,1.33a8.45,8.45,0,0,0-.18,1.75V36.74h7.68V44.6h-7.68V69.45H302.8v-58h5Q311.63,11.41,312.41,11.83Z"/></g></g></svg>