<svg xmlns="http://www.w3.org/2000/svg" viewBox="0 0 212.77 58.4"><defs><style>.cls-1{fill:#c5ccd4;}</style></defs><title>logo-text</title><g id="레이어_2" data-name="레이어 2"><g id="레이어_1-2" data-name="레이어 1"><polygon class="cls-1" points="63.71 0 84.97 58.4 96.26 58.4 75.01 0 63.71 0"/><polygon class="cls-1" points="21.26 0 0 58.4 11.3 58.4 32.55 0 21.26 0"/><polygon class="cls-1" points="21.24 0 42.49 58.4 53.79 58.4 32.54 0 21.24 0"/><polygon points="63.73 0 42.47 58.4 53.77 58.4 75.03 0 63.73 0"/><path d="M116.23,16.15c.2.13.22.46,0,1l-.2.63a4.3,4.3,0,0,0-.08.82v19h2.15q3,0,6.6-.31a69.25,69.25,0,0,0,8.13-1.14l.51,5c-3.86.58-7.39,1-10.59,1.25q-4.07.36-8,.4h-4.61V15.92h3.32A8.89,8.89,0,0,1,116.23,16.15Zm25.66-2.85q.36.19,0,1c-.13.36-.23.65-.31.86a5.22,5.22,0,0,0-.12,1.13V29.4h5v5.07h-5V50.53h-5.78V13h3.24A9,9,0,0,1,141.89,13.3Z"/><path d="M156.25,43.07l4.31-.33c0,.3.05.68.12,1.15,0,.31.12.71.21,1.21l-4.39.31-4.94.33c-.35,0-.68,0-1,.1l-.66.16a1.36,1.36,0,0,1-.61,0c-.11-.06-.21-.24-.29-.57l-.53-2.09c.52,0,1.21,0,2.05-.06s1.86-.06,2.84-.12V39.88a5.41,5.41,0,0,1-2.93-1.46,4.35,4.35,0,0,1-1.29-3.2,4.47,4.47,0,0,1,1.72-3.71,5.74,5.74,0,0,1,3.67-1.2,5.61,5.61,0,0,1,3.61,1.2,4.46,4.46,0,0,1,1.74,3.71,4.36,4.36,0,0,1-1.09,3,5.11,5.11,0,0,1-2.54,1.55Zm-3.6-9.69a2.78,2.78,0,0,0-.62,1.89,2.32,2.32,0,0,0,.62,1.68,2.53,2.53,0,0,0,1.88.69,2.38,2.38,0,0,0,1.81-.69,2.25,2.25,0,0,0,.67-1.68,2.65,2.65,0,0,0-.67-1.89,2.33,2.33,0,0,0-1.81-.72A2.44,2.44,0,0,0,152.65,33.38Zm12-3.67q.17.09,0,.51l-.16.43a2.6,2.6,0,0,0-.06.56v6.55h2.48v2.53h-2.48v8h-2.89V29.57h1.62A4.49,4.49,0,0,1,164.63,29.71Z"/><path class="cls-1" d="M208.67,14V18.5H185.35v4.61h24V27.6H197.54v4.65h15.23v4.88h-37.5V32.25h16.52V27.6H179.37V14Zm-23.28,24.1c.21.13.22.47,0,1-.08.29-.15.51-.2.67a4.13,4.13,0,0,0-.08.78v4.1h24.22v4.88h-30V37.76h3.4A6.28,6.28,0,0,1,185.39,38.07Z"/></g></g></svg>