<svg xmlns="http://www.w3.org/2000/svg" viewBox="0 0 24.06 36.48"><title>map</title><g id="레이어_2" data-name="레이어 2"><g id="레이어_1-2" data-name="레이어 1"><path d="M12.05,36C10.54,35.45.5,18.65.5,12a11.53,11.53,0,0,1,23.06,0C23.56,19,13.69,35.79,12.05,36Zm0-30.49A6.93,6.93,0,1,0,19,12.42,6.94,6.94,0,0,0,12.09,5.49Z"/><path d="M12,1a11,11,0,0,1,11,11c0,6.22-8.64,21.87-11,23.38C10,33.67,1,18.27,1,12A11,11,0,0,1,12,1m.06,18.85a7.43,7.43,0,1,0-7.43-7.43,7.43,7.43,0,0,0,7.43,7.43M12,0A12,12,0,0,0,0,12c0,6.65,10.2,24.45,12,24.45,2.39,0,12-17.8,12-24.45A12,12,0,0,0,12,0Zm.06,18.85a6.43,6.43,0,1,1,6.43-6.43,6.43,6.43,0,0,1-6.43,6.43Z"/></g></g></svg>