<svg xmlns="http://www.w3.org/2000/svg" viewBox="0 0 206.38 51.12"><defs><style>.cls-1{fill:#c5ccd4;}</style></defs><title>money_i</title><g id="레이어_2" data-name="레이어 2"><g id="레이어_1-2" data-name="레이어 1"><polygon class="cls-1" points="55.77 0 74.37 51.12 84.26 51.12 65.66 0 55.77 0"/><polygon class="cls-1" points="18.61 0 0 51.12 9.89 51.12 28.5 0 18.61 0"/><polygon class="cls-1" points="18.59 0 37.2 51.12 47.09 51.12 28.48 0 18.59 0"/><polygon points="55.78 0 37.18 51.12 47.07 51.12 65.67 0 55.78 0"/><path class="cls-1" d="M128.65,8.31v4.53H105.33v4.61h24v4.49H117.52v4.65h15.23v4.88H95.25V26.59h16.52V21.94H99.35V8.31Zm-23.28,24.1c.21.13.22.47,0,1-.08.29-.15.51-.2.67a4.13,4.13,0,0,0-.08.78V39h24.22v4.88h-30V32.1h3.4A6.28,6.28,0,0,1,105.37,32.41Z"/><path class="cls-1" d="M141.64,30.63c.11.05.13.18,0,.37a2.16,2.16,0,0,0-.08.24,1,1,0,0,0,0,.29v6l2.83-.24c1.19-.1,2.19-.2,3-.29,0,.29.08.65.15,1.09l.24,1.1-4.81.41c-2.11.18-4,.34-5.84.47a1.86,1.86,0,0,0-.52.11,3.12,3.12,0,0,0-.39.18c-.25.1-.41.14-.49.1s-.24-.28-.33-.67L135,37.84l1.87-.1,1.82-.12V30.53h1.6A5.22,5.22,0,0,1,141.64,30.63Zm5-5.47c0,2.1-.08,4-.22,5.74a25.33,25.33,0,0,1-.7,4.71l-2.8-.12a22.52,22.52,0,0,0,.57-3.63,37.86,37.86,0,0,0,.29-4.26h-7.55V25.16Zm4.59-1.11q.16.09,0,.51l-.16.43a2.6,2.6,0,0,0-.06.56V32.1h2.48v2.54h-2.48v8h-2.89V23.91h1.62A4.49,4.49,0,0,1,151.27,24.05Z"/><path d="M176.19,10.49c.21.14.22.46,0,1l-.2.63a4.3,4.3,0,0,0-.08.82v19h2.15q3,0,6.6-.31a69.25,69.25,0,0,0,8.13-1.14l.51,5q-5.79.85-10.59,1.25-4.06.34-8,.39h-4.61V10.26h3.32A8.89,8.89,0,0,1,176.19,10.49Zm25.66-2.85q.36.19,0,1c-.13.36-.23.65-.31.86a5.22,5.22,0,0,0-.12,1.13V23.74h5v5.08h-5v16h-5.78V7.37h3.24A9,9,0,0,1,201.85,7.64Z"/></g></g></svg>