<svg xmlns="http://www.w3.org/2000/svg" viewBox="0 0 33.7 33.77"><title>phone</title><g id="레이어_2" data-name="레이어 2"><g id="레이어_1-2" data-name="레이어 1"><path d="M.15,6.19l2.39,5.48a2.5,2.5,0,0,0,.45.7,34.76,34.76,0,0,0,7.7,11.25,34.32,34.32,0,0,0,12.43,8.16l0-.06,4.35,1.89c1.32.54,2.93-.37,3.59-2l2.33-5.77c.67-1.64.14-3.41-1.18-3.94L27,19.77a2.65,2.65,0,0,0-3,1l-2.64,2.67a30.75,30.75,0,0,1-5.87-4.63,30.52,30.52,0,0,1-5.06-6.62L13,9.68a2.63,2.63,0,0,0,1-3L11.82,1.47C11.28.15,9.52-.38,7.89.28L2.15,2.6C.52,3.26-.38,4.87.15,6.19Z"/></g></g></svg>